  0
SECTION
  2
HEADER
  9
$EXTMIN
 10
0.000000
 20
0.000000
  9
$EXTMAX
 10
10.006944
 20
10.006944
  9
$LTSCALE
 40
100.000000
  9
$PDMODE
 70
35
  9
$PDSIZE
 40
80.000000
  0
ENDSEC
  0
SECTION
  2
TABLES
  0
TABLE
  2
LAYER
 70
1
  0
LAYER
  2
LAYER_1
 70
0
 62
1
  6
CONTINUOUS
  0
ENDTAB
  0
ENDSEC
  0
SECTION
  2
BLOCKS
  0
ENDSEC
  0
SECTION
  2
ENTITIES
  0
POLYLINE
  8
LAYER_1
 62
7
 70
1
 66
1
  0
VERTEX
  8
LAYER_1
 62
7
 10
0.565972
 20
10.003472
  0
VERTEX
  8
LAYER_1
 62
7
 10
9.440972
 20
10.003472
 42
-0.199444
  0
VERTEX
  8
LAYER_1
 62
7
 10
9.838238
 20
9.838241
 42
-0.199448
  0
VERTEX
  8
LAYER_1
 62
7
 10
10.003472
 20
9.440976
  0
VERTEX
  8
LAYER_1
 62
7
 10
10.003472
 20
0.565972
 42
-0.199446
  0
VERTEX
  8
LAYER_1
 62
7
 10
9.838238
 20
0.168706
 42
-0.199446
  0
VERTEX
  8
LAYER_1
 62
7
 10
9.440972
 20
0.003472
  0
VERTEX
  8
LAYER_1
 62
7
 10
0.565972
 20
0.003472
 42
-0.199446
  0
VERTEX
  8
LAYER_1
 62
7
 10
0.168706
 20
0.168706
 42
-0.199446
  0
VERTEX
  8
LAYER_1
 62
7
 10
0.003472
 20
0.565972
  0
VERTEX
  8
LAYER_1
 62
7
 10
0.003472
 20
9.440976
 42
-0.199448
  0
VERTEX
  8
LAYER_1
 62
7
 10
0.168706
 20
9.838241
 42
-0.199444
  0
VERTEX
  8
LAYER_1
 62
7
 10
0.565972
 20
10.003472
  0
SEQEND
  0
POLYLINE
  8
LAYER_1
 62
7
 70
1
 66
1
  0
VERTEX
  8
LAYER_1
 62
7
 10
5.753472
 20
5.003457
 42
0.199587
  0
VERTEX
  8
LAYER_1
 62
7
 10
5.533791
 20
5.533791
 42
0.199587
  0
VERTEX
  8
LAYER_1
 62
7
 10
5.003457
 20
5.753472
 42
0.199596
  0
VERTEX
  8
LAYER_1
 62
7
 10
4.473138
 20
5.533791
 42
0.199579
  0
VERTEX
  8
LAYER_1
 62
7
 10
4.253472
 20
5.003457
 42
0.199589
  0
VERTEX
  8
LAYER_1
 62
7
 10
4.473138
 20
4.473138
 42
0.199589
  0
VERTEX
  8
LAYER_1
 62
7
 10
5.003457
 20
4.253472
 42
0.199579
  0
VERTEX
  8
LAYER_1
 62
7
 10
5.533791
 20
4.473138
 42
0.199596
  0
VERTEX
  8
LAYER_1
 62
7
 10
5.753472
 20
5.003457
  0
SEQEND
  0
POLYLINE
  8
LAYER_1
 62
7
 70
1
 66
1
  0
VERTEX
  8
LAYER_1
 62
7
 10
8.691474
 20
8.253483
 42
0.199595
  0
VERTEX
  8
LAYER_1
 62
7
 10
8.563191
 20
8.563194
 42
0.199586
  0
VERTEX
  8
LAYER_1
 62
7
 10
8.253461
 20
8.691474
 42
0.199590
  0
VERTEX
  8
LAYER_1
 62
7
 10
7.943752
 20
8.563194
 42
0.199590
  0
VERTEX
  8
LAYER_1
 62
7
 10
7.815472
 20
8.253483
 42
0.199586
  0
VERTEX
  8
LAYER_1
 62
7
 10
7.943752
 20
7.943755
 42
0.199595
  0
VERTEX
  8
LAYER_1
 62
7
 10
8.253461
 20
7.815472
 42
0.199591
  0
VERTEX
  8
LAYER_1
 62
7
 10
8.563191
 20
7.943755
 42
0.199592
  0
VERTEX
  8
LAYER_1
 62
7
 10
8.691474
 20
8.253483
  0
SEQEND
  0
POLYLINE
  8
LAYER_1
 62
7
 70
1
 66
1
  0
VERTEX
  8
LAYER_1
 62
7
 10
2.191472
 20
8.253483
 42
0.199595
  0
VERTEX
  8
LAYER_1
 62
7
 10
2.063190
 20
8.563194
 42
0.199587
  0
VERTEX
  8
LAYER_1
 62
7
 10
1.753461
 20
8.691474
 42
0.199591
  0
VERTEX
  8
LAYER_1
 62
7
 10
1.443752
 20
8.563194
 42
0.199590
  0
VERTEX
  8
LAYER_1
 62
7
 10
1.315472
 20
8.253483
 42
0.199586
  0
VERTEX
  8
LAYER_1
 62
7
 10
1.443752
 20
7.943755
 42
0.199596
  0
VERTEX
  8
LAYER_1
 62
7
 10
1.753461
 20
7.815472
 42
0.199592
  0
VERTEX
  8
LAYER_1
 62
7
 10
2.063190
 20
7.943755
 42
0.199591
  0
VERTEX
  8
LAYER_1
 62
7
 10
2.191472
 20
8.253483
  0
SEQEND
  0
POLYLINE
  8
LAYER_1
 62
7
 70
1
 66
1
  0
VERTEX
  8
LAYER_1
 62
7
 10
2.191472
 20
1.753472
 42
0.199582
  0
VERTEX
  8
LAYER_1
 62
7
 10
2.063190
 20
2.063192
 42
0.199598
  0
VERTEX
  8
LAYER_1
 62
7
 10
1.753461
 20
2.191485
 42
0.199601
  0
VERTEX
  8
LAYER_1
 62
7
 10
1.443752
 20
2.063192
 42
0.199577
  0
VERTEX
  8
LAYER_1
 62
7
 10
1.315472
 20
1.753472
 42
0.199578
  0
VERTEX
  8
LAYER_1
 62
7
 10
1.443752
 20
1.443754
 42
0.199600
  0
VERTEX
  8
LAYER_1
 62
7
 10
1.753461
 20
1.315461
 42
0.199597
  0
VERTEX
  8
LAYER_1
 62
7
 10
2.063190
 20
1.443754
 42
0.199582
  0
VERTEX
  8
LAYER_1
 62
7
 10
2.191472
 20
1.753472
  0
SEQEND
  0
POLYLINE
  8
LAYER_1
 62
7
 70
1
 66
1
  0
VERTEX
  8
LAYER_1
 62
7
 10
8.691474
 20
1.753472
 42
0.199583
  0
VERTEX
  8
LAYER_1
 62
7
 10
8.563191
 20
2.063192
 42
0.199597
  0
VERTEX
  8
LAYER_1
 62
7
 10
8.253461
 20
2.191485
 42
0.199601
  0
VERTEX
  8
LAYER_1
 62
7
 10
7.943752
 20
2.063192
 42
0.199577
  0
VERTEX
  8
LAYER_1
 62
7
 10
7.815472
 20
1.753472
 42
0.199578
  0
VERTEX
  8
LAYER_1
 62
7
 10
7.943752
 20
1.443754
 42
0.199600
  0
VERTEX
  8
LAYER_1
 62
7
 10
8.253461
 20
1.315461
 42
0.199596
  0
VERTEX
  8
LAYER_1
 62
7
 10
8.563191
 20
1.443754
 42
0.199583
  0
VERTEX
  8
LAYER_1
 62
7
 10
8.691474
 20
1.753472
  0
SEQEND
  0
ENDSEC
  0
EOF
